<svg xmlns="http://www.w3.org/2000/svg">
  <defs>
    <symbol id="icon-linkedin" viewBox="0 0 32 32">
      <path fill="#f4f4fd" d="M32 32V20c0-5-1-10-8-10-3 0-5 2-6 4v-3h-7v21h7V21c0-2 0-5 4-5 3 0 3 3 3 6v10h7zM1 11h6v21H1V11zM4 0C2 0 0 2 0 4s2 4 4 4 4-2 4-4-2-4-4-4z" style="fill:var(--color1, #f4f4fd)"/>
    </symbol>
    <symbol id="icon-facebook" viewBox="0 0 32 32">
      <path fill="#f4f4fd" d="M21 5h3V0h-4c-4 0-7 3-7 8v4H8v6h5v14h6V18h4l1-6h-5V8c0-2 0-3 2-3z" style="fill:var(--color1, #f4f4fd)"/>
    </symbol>
    <symbol id="icon-twitter" viewBox="0 0 32 32">
      <path fill="#f4f4fd" d="m32 6-4 1c2-1 3-2 3-4l-4 2a7 7 0 0 0-11 6C10 11 5 8 2 4a7 7 0 0 0 2 9l-3-1c0 3 3 6 6 7a7 7 0 0 1-3 0c0 2 3 4 6 4a13 13 0 0 1-10 3A19 19 0 0 0 29 9l3-3z" style="fill:var(--color1, #f4f4fd)"/>
    </symbol>
    <symbol id="icon-instagram" viewBox="0 0 32 32">
      <path fill="#f4f4fd" d="m32 9-1-3c0-2-1-3-2-3l-2-2-4-1A110 110 0 0 0 6 1L3 3C2 3 1 4 1 6L0 9a110 110 0 0 0 1 17c0 2 1 3 2 3l3 2 3 1a117 117 0 0 0 18-1c2-1 3-2 4-5l1-3V9zm-3 13v3c-1 2-2 3-4 3l-2 1a113 113 0 0 1-16-1l-2-1-1-2-1-3A113 113 0 0 1 4 7l1-2 2-1 3-1a113 113 0 0 1 16 1l1 1 2 2v15z" style="fill:var(--color1, #f4f4fd)"/>
      <path fill="#f4f4fd" d="M16 8a8 8 0 1 0 0 16 8 8 0 0 0 0-16zm0 13a5 5 0 1 1 0-10 5 5 0 0 1 0 10zM27 7a2 2 0 1 1-4 0 2 2 0 0 1 4 0z" style="fill:var(--color1, #f4f4fd)"/>
    </symbol>
  </defs>
</svg>
